<?xml version="1.0" encoding="UTF-8"?>
<svg enable-background="new 0 0 960 939" version="1.1" viewBox="0 0 960 939" xml:space="preserve" xmlns="http://www.w3.org/2000/svg">
<style type="text/css">
	.st0{fill:#294268;stroke:#000000;stroke-miterlimit:10;}
	.st1{fill:#FFFFFF;}
	.st2{fill:#6B1D1D;}
	.st3{fill:none;stroke:#777777;stroke-width:5;stroke-miterlimit:10;}
</style>
<rect class="st0" y="-4.7" width="969.1" height="943.5"/>
<path class="st1" d="m707.5 516.8c6.5-79.8 15.5-194.9 15.5-194.9h0.1c-4-122-103.8-219.2-226.3-219.2-125.1-0.1-226.8 101.1-226.8 226.2v11.8s7.8 87.5 12.6 164c-19.6 22.4-72.2 86.8-50 107.7 18.5 17.5 41.2-2.4 53.7-16.6-0.7 96.5-16.3 320.5-16.3 320.5l17.8-17.7 18.7 18.2h4l17.9-17.9 17.9 17.9h3.7l21.5-21.3 20.4 20.5 19.9-20 21 20.8h6.1l16.6-16.6 16.6 16.6h7.5l16.1-16.1 16.1 16.1h7.2l19.7-19.7 19.7 19.7h1.3l19.2-19.2 19.2 19.2h4.1l17.4-17.4 17.4 17.4h6.1l16.8-16.8 16.8 16.8h5.8l20.4-20.3 20.2 20.5 0.1-0.2s-20.2-256.6-21.8-315.7l66.9 26.3c26.6-21.9-41.4-91.7-60.8-110.6z"/>
	<circle class="st2" cx="444.7" cy="346.9" r="22.7"/>
	<path d="m455.2 326.5s0.5 0.3 1.4 0.8c0.5 0.2 1 0.6 1.6 1.1 0.3 0.2 0.7 0.5 1 0.7 0.3 0.3 0.7 0.6 1.1 0.9 1.5 1.3 3.2 3.1 4.6 5.4 1.5 2.4 2.8 5.3 3.5 8.7 0.3 1.7 0.5 3.6 0.4 5.5 0 0.5 0 1-0.1 1.5s-0.1 1-0.2 1.5c-0.1 1-0.4 2-0.6 3-0.1 0.5-0.3 1-0.5 1.5l-0.3 0.8-0.1 0.4-0.2 0.4c-0.4 0.9-0.7 1.8-1.4 2.8-0.3 0.5-0.6 1-0.9 1.5s-0.7 0.9-1 1.4-0.8 0.9-1.1 1.3c-0.4 0.4-0.8 0.9-1.3 1.3-1.7 1.6-3.8 3-6 4.2-2.3 1.1-4.7 1.9-7.3 2.3s-5.2 0.3-7.8 0c-1.3-0.2-2.6-0.5-3.9-1-0.6-0.2-1.3-0.4-1.9-0.7l-0.9-0.4-0.5-0.2-0.2-0.1-0.1-0.1h-0.1c-0.1-0.1 0.2 0.1-0.3-0.1l-1.4-0.9c-0.3-0.2-0.4-0.2-0.8-0.5l-0.9-0.5c-0.6-0.4-1.2-0.8-1.7-1.3l-1.5-1.4c-1.8-1.9-3.4-4-4.6-6.4-1.1-2.3-1.9-4.8-2.4-7.3-0.3-2.5-0.4-5-0.1-7.3 0.3-2.4 1-4.6 1.9-6.7 0.4-1 1-2 1.5-2.9l0.3-0.5 0.2-0.3 0.4-0.6c0.3-0.4 0.5-0.8 0.9-1.2 0.7-0.8 1.4-1.7 2.1-2.4 0.4-0.3 0.7-0.7 1.1-1l1.2-0.9c1.5-1.2 3.1-2.1 4.7-2.9 3.2-1.4 6.4-2.1 9.1-2.3 2.8-0.2 5.2 0.2 7.1 0.6 0.5 0.1 0.9 0.2 1.4 0.3 0.4 0.1 0.8 0.3 1.2 0.4 0.7 0.2 1.3 0.5 1.8 0.7 1 0.7 1.6 0.9 1.6 0.9zm-0.3 0.5s-0.5-0.2-1.4-0.6c-0.5-0.2-1.1-0.4-1.8-0.7-0.4-0.1-0.7-0.3-1.1-0.4s-0.9-0.2-1.3-0.3c-1.9-0.4-4.2-0.7-6.9-0.3-2.7 0.3-5.6 1.1-8.5 2.7s-5.6 4-7.7 7.1c-2.1 3.2-3.5 7-3.7 11.1-0.1 2 0.1 4.1 0.5 6.2 0.5 2.1 1.3 4 2.3 5.9 1.1 1.9 2.4 3.6 3.9 5.1 1.6 1.5 3.3 2.7 5.3 3.8 1.9 0.9 4 1.7 6.1 2.1s4.3 0.5 6.4 0.2 4.2-0.8 6.2-1.6c1.9-0.8 3.8-1.9 5.3-3.2 1.6-1.3 3-2.7 4.1-4.4 0.6-0.8 1.1-1.7 1.6-2.5 0.4-0.8 0.8-1.7 1.2-2.6 1.3-3.5 1.7-7.2 1.3-10.4-0.4-3.3-1.4-6.2-2.7-8.5-1.3-2.4-2.9-4.1-4.3-5.4-0.4-0.3-0.7-0.6-1-0.9s-0.7-0.5-1-0.7c-0.6-0.4-1.1-0.8-1.6-1.1-0.7-0.4-1.2-0.7-1.2-0.6z"/>
	<circle class="st2" cx="574.7" cy="350.9" r="22.7"/>
	<path d="m572.6 327.9s0.6 0.1 1.6 0c0.5-0.1 1.2 0 1.9 0.1 0.4 0 0.8 0 1.2 0.1s0.9 0.1 1.4 0.2c1.9 0.3 4.3 0.9 6.8 2.1s5.2 3 7.6 5.5c1.2 1.3 2.4 2.7 3.3 4.4 0.2 0.4 0.5 0.8 0.7 1.3 0.2 0.4 0.4 0.9 0.6 1.4 0.5 0.9 0.7 1.9 1.1 2.9 0.2 0.5 0.3 1 0.4 1.5l0.2 0.8 0.1 0.4 0.1 0.5c0.1 1 0.3 1.9 0.3 3.1 0 0.6 0.1 1.2 0 1.8 0 0.6-0.1 1.1-0.1 1.7s-0.2 1.2-0.2 1.7c-0.1 0.6-0.2 1.2-0.4 1.7-0.6 2.3-1.6 4.6-2.8 6.8-1.3 2.1-3 4.1-4.9 5.8-2 1.7-4.2 3.1-6.6 4.2-1.2 0.5-2.5 1-3.8 1.3-0.6 0.2-1.3 0.3-1.9 0.4l-1 0.2-0.5 0.1h-0.7l-1.7 0.1h-0.9l-1.1-0.1c-0.7-0.1-1.5-0.1-2.1-0.2l-2-0.4c-2.6-0.6-5.1-1.6-7.3-2.9s-4.2-3-5.9-4.8c-1.6-1.9-3-4-4-6.1-1-2.2-1.7-4.4-2-6.7-0.2-1.1-0.2-2.2-0.3-3.3v-1.6c0-0.5 0-0.9 0.1-1.5 0.2-1.1 0.2-2.2 0.5-3.1 0.1-0.5 0.2-1 0.4-1.4 0.2-0.5 0.3-0.9 0.5-1.4 0.6-1.8 1.5-3.5 2.4-5 1.9-2.9 4.2-5.2 6.5-6.8 2.2-1.7 4.5-2.6 6.3-3.3 0.5-0.2 0.9-0.3 1.3-0.4l1.2-0.3c0.7-0.2 1.4-0.4 1.9-0.5 1.2-0.2 1.7-0.3 1.8-0.3zm0 1s-0.5-0.1-1.6 0.1c-0.5 0.1-1.1 0.1-1.9 0.3-0.4 0.1-0.8 0.1-1.2 0.3-0.4 0.1-0.8 0.3-1.3 0.4-1.8 0.7-3.9 1.7-6 3.4s-4.1 3.9-5.7 6.8c-1.5 2.9-2.6 6.4-2.6 10.2-0.1 3.8 0.9 7.8 2.9 11.3 1 1.8 2.3 3.4 3.8 4.9s3.3 2.7 5.1 3.8c1.9 1 4 1.7 6.1 2.2 2.1 0.4 4.3 0.5 6.5 0.3 2.1-0.2 4.3-0.7 6.3-1.5s3.9-1.9 5.6-3.3 3.1-2.9 4.3-4.6c1.2-1.8 2.2-3.6 2.8-5.5s1.1-3.9 1.1-5.9c0.1-1 0-2 0-2.9-0.1-0.9-0.2-1.9-0.4-2.8-0.8-3.7-2.4-6.9-4.5-9.5s-4.5-4.4-6.9-5.7-4.6-1.9-6.5-2.3c-0.5-0.1-0.9-0.2-1.3-0.2-0.4-0.1-0.8-0.1-1.2-0.1-0.7-0.1-1.4 0.1-1.9 0.1-1 0-1.5 0.2-1.5 0.2z"/>
<path class="st3" d="m242.4 631.3l-22.9-9.4c-5.6-2.3-8.3-8.7-6-14.3l0.4-1.1c2.3-5.6 8.7-8.3 14.3-6l22.9 9.4c5.6 2.3 8.3 8.7 6 14.3l-0.4 1.1c-2.3 5.6-8.8 8.3-14.3 6z"/>
<path class="st3" d="m258.7 657.6l-13.3-20.9c-3.2-5.1-1.7-11.9 3.4-15.1l1-0.6c5.1-3.2 11.9-1.7 15.1 3.4l13.3 20.9c3.2 5.1 1.7 11.9-3.4 15.1l-1 0.6c-5.1 3.2-11.9 1.6-15.1-3.4z"/>
<path class="st3" d="m246.9 689.2l1.6-22.4c0.4-6.3 6-11.1 12.3-10.7l2.9 0.2c6.3 0.4 11.1 6 10.7 12.3l-1.6 22.4c-0.4 6.3-6 11.1-12.3 10.7l-2.9-0.2c-6.4-0.5-11.2-6-10.7-12.3z"/>
<path class="st3" d="m264.8 770.3l-17.8-17.3c-4.3-4.2-4.4-11.1-0.2-15.5l0.8-0.8c4.2-4.3 11.1-4.4 15.5-0.2l17.8 17.3c4.3 4.2 4.4 11.1 0.2 15.5l-0.8 0.8c-4.2 4.3-11.2 4.4-15.5 0.2z"/>
<path class="st3" d="m251.7 734.4l-9.9-22.7c-2.4-5.5 0.2-12 5.7-14.4l1.1-0.5c5.5-2.4 12 0.2 14.4 5.7l9.9 22.7c2.4 5.5-0.2 12-5.7 14.4l-1.1 0.5c-5.5 2.4-12-0.2-14.4-5.7z"/>
<path class="st3" d="m197.7 646l5-24.3c1.2-5.9 7-9.7 12.9-8.5l1.1 0.2c5.9 1.2 9.7 7 8.5 12.9l-5 24.3c-1.2 5.9-7 9.7-12.9 8.5l-1.1-0.2c-5.8-1.2-9.7-7-8.5-12.9z"/>
<path class="st3" d="m191.5 687.1l2.6-24.7c0.6-6 6-10.4 12-9.7l1.2 0.1c6 0.6 10.4 6 9.7 12l-2.6 24.7c-0.6 6-6 10.4-12 9.7l-1.2-0.1c-5.9-0.7-10.3-6.1-9.7-12z"/>
</svg>
